<?xml version="1.0" encoding="utf-8"?>
<!-- Generator: Adobe Illustrator 28.0.0, SVG Export Plug-In . SVG Version: 6.00 Build 0)  -->
<svg version="1.1" id="Layer_1" xmlns="http://www.w3.org/2000/svg" xmlns:xlink="http://www.w3.org/1999/xlink" x="0px" y="0px"
	 viewBox="0 0 1553.6 1080" style="enable-background:new 0 0 1553.6 1080;" xml:space="preserve">
<style type="text/css">
	.st0{fill:#FFFFFF;}
	.st1{opacity:0.2;fill:#FFFFFF;enable-background:new    ;}
</style>
<path class="st0" d="M1440.2,428.2c-48-47.8-111.8-74.2-179.7-73.7l-200.6,0.1c32.5,1,64,13.1,88,35.1
	c21.6,19.9,40.2,42.8,55.1,67.9l58,0c43.5-0.3,84.1,18,113.2,50.9c10.5,11.9,18.9,25.3,25.2,39.7H1251c1.3,11,1.9,22.2,1.9,33.5
	c0,23.9-2.9,47.1-8.4,69.4h226.3c23.9,0,43.8-19.2,43.9-43.2c0-0.2,0-0.3,0-0.5C1514.7,539.7,1488.2,476,1440.2,428.2z"/>
<path class="st1" d="M356.4,543.7c3.5,6.5,3.5,13.9,2.5,21.1c-1.5,10.5-5,20.4-8.3,30.3c13.2,14.1,27.5,27.1,43,38.7
	c1.8-2.5,3.6-5,5.2-7.5c5.4-8.3,10.3-17.1,13.1-26.6c2.3-7.8,1.5-14.3-1.9-21.7c-9-19.9-25-36.8-39.9-52.4
	c-7-7.3-14.1-14.4-21.3-21.5c-7.8-7.7-15.4-15.5-24.1-22.2c-9.4-7.2-19.8-12.9-31.1-16.3c-6.1-1.9-12.4-3-18.8-3.6
	c2.8,9.6,6,19,9.6,28.2c4.9,3.1,9.8,6.1,14.9,9c15,8.8,30.5,17.5,43.7,28.9C348.1,532.5,353.2,537.6,356.4,543.7z"/>
<g>
	<path class="st0" d="M427.4,853.2H324.3V570.8c0-49.4-38.6-91.2-88-92.6c-51.3-1.5-93.5,39.8-93.5,90.7v284.3l0,0
		c-56.9,0-103.1-46.2-103.1-103.1V571.8c0-106.4,84.5-195.2,190.9-196.8c108.3-1.6,196.9,86,196.9,193.9V853.2z"/>
</g>
<path class="st0" d="M810.4,497.9c-26.8,0-47.3-7.5-62.4-20.3v190c0,50-40.7,90.8-90.8,90.8c-45.8,0-90.8-52.8-90.8-106.7V486.4
	c0-57-46.2-103.1-103.1-103.1l0,0V474v177.6c0,111.8,90.6,209.8,193.9,209.8c106.9,0,193.9-87,193.9-193.9V497.9H810.4z"/>
<path class="st0" d="M1145.3,427.8c-48-47.8-111.8-74.2-179.7-73.7l-114.5,0.6V226.2c0-104.6-85.1-189.8-189.8-189.8v103.1
	c47.8,0,86.6,38.9,86.6,86.6v179.5c0,7.8,1.5,15.5,4.8,22.6C761.6,447,780,458,799.5,458c0.1,0,0.2,0,0.3,0l166.3-0.9
	c43.5-0.3,84.1,18,113.2,50.9c20.4,23.1,33.2,52.2,36.5,82.9c9.5,89.3-60.7,165.6-148.1,166.1l-89.7,0.5c-31,81.7-89,101.9-93,103.2
	l183.3-0.5c138.7-0.8,251.6-114.3,251.6-253C1219.8,539.3,1193.3,475.6,1145.3,427.8z"/>
<g>
	<path class="st0" d="M48,973.1h25.4c15.1,0,20.4,6.5,20.4,17.3v10.5c0,10.9-5.3,17.4-20.4,17.4H57v25.1H48V973.1z M73.1,981.2H57
		v28.9h16c8.7,0,11.6-2.4,11.6-9.3v-10.3C84.7,983.6,81.7,981.2,73.1,981.2z"/>
	<path class="st0" d="M257.3,973.1v50.5c0,11.5-6.6,20.8-24.9,20.8s-24.9-9.3-24.9-20.8v-50.5h9.1v50c0,8.7,4.8,13.2,15.8,13.2
		s15.8-4.5,15.8-13.2v-50L257.3,973.1L257.3,973.1z"/>
	<path class="st0" d="M376.1,1043.4v-70.3h27.1c11.1,0,16.6,5,16.6,14.2v8.1c0,5.4-1.8,9.4-8,11.7c6.1,1,10.3,5.2,10.3,12.7v8.4
		c0,9.8-6.9,15.1-17.4,15.1L376.1,1043.4L376.1,1043.4z M410.7,987.6c0-4.5-2.5-6.7-8-6.7h-17.5v22.8h16c6.9,0,9.5-3.2,9.5-8.2
		V987.6z M413,1020.2c0-5.6-3.2-8.7-10.1-8.7h-17.7v24h18.2c6.4,0,9.6-2.7,9.6-8L413,1020.2L413,1020.2z"/>
	<path class="st0" d="M546.7,1035.3h30.5v8.1h-39.6v-70.3h9.1L546.7,1035.3L546.7,1035.3z"/>
	<path class="st0" d="M701.3,1043.4h-9.1v-70.3h9.1V1043.4z"/>
	<path class="st0" d="M828.6,1023.2c0,9.8,3.8,13,15.3,13c4.2,0,11.1-0.5,16.5-1.5l1,7.8c-5.1,1.2-12.5,1.9-17.7,1.9
		c-17.2,0-24-7.4-24-20.7v-31c0-13.3,6.9-20.7,24-20.7c5.3,0,12.7,0.7,17.7,1.9l-1,7.8c-5.4-1-12.2-1.5-16.5-1.5
		c-11.5,0-15.3,3.2-15.3,13V1023.2z"/>
	<path class="st0" d="M986.5,1043.4h-9.1v-70.3h9.1V1043.4z"/>
	<path class="st0" d="M1130.8,973.1c17.2,0,22.6,9,22.6,20.2v30c0,11.2-5.4,20.1-22.6,20.1h-24.6v-70.3L1130.8,973.1L1130.8,973.1z
		 M1115.3,1035.3h15.2c10.7,0,13.8-4.4,13.8-12.7v-28.7c0-8.2-3.2-12.7-13.8-12.7h-15.2V1035.3z"/>
	<path class="st0" d="M1322.9,1043.4h-9.2l-5.8-16.9h-29.9l-5.7,16.9h-9.2l23.7-70.3h12.2L1322.9,1043.4z M1293,979.7l-12.6,38.9
		h25.1L1293,979.7z"/>
	<path class="st0" d="M1460.7,973.1c17.2,0,22.6,9,22.6,20.2v30c0,11.2-5.4,20.1-22.6,20.1h-24.6v-70.3L1460.7,973.1L1460.7,973.1z
		 M1445.2,1035.3h15.2c10.7,0,13.8-4.4,13.8-12.7v-28.7c0-8.2-3.2-12.7-13.8-12.7h-15.2V1035.3z"/>
</g>
<path class="st0" d="M1216.5,756.2c-26.1,42.3-90.7,97.3-156,103.1h192.8c147.1,0,221.7-51.6,234.2-103.1H1216.5z"/>
</svg>
