<?xml version="1.0" encoding="utf-8"?>
<!-- Generator: Adobe Illustrator 28.0.0, SVG Export Plug-In . SVG Version: 6.00 Build 0)  -->
<svg version="1.1" id="Layer_1" xmlns="http://www.w3.org/2000/svg" xmlns:xlink="http://www.w3.org/1999/xlink" x="0px" y="0px"
	 viewBox="0 0 1553.6 1080" style="enable-background:new 0 0 1553.6 1080;" xml:space="preserve">
<style type="text/css">
	.st0{fill:#B8FBFE;}
	.st1{opacity:0.2;fill:#662D91;}
	.st2{fill:#FFFFFF;}
</style>
<path class="st0" d="M1440.22,428.22c-48.03-47.83-111.8-74.17-179.66-73.74l-200.61,0.06c32.53,0.95,63.99,13.07,87.99,35.15
	c21.6,19.87,40.2,42.75,55.14,67.92l57.98-0.01c43.46-0.32,84.1,18.02,113.18,50.89c10.49,11.86,18.95,25.31,25.16,39.73h-148.41
	c1.27,11.01,1.95,22.19,1.95,33.53c0,23.89-2.93,47.11-8.42,69.38h226.33c23.95,0,43.81-19.22,43.86-43.17c0-0.15,0-0.3,0-0.45
	C1514.7,539.73,1488.25,476.05,1440.22,428.22z"/>
<path class="st1" d="M356.42,543.65c3.51,6.53,3.53,13.94,2.52,21.11c-1.47,10.45-4.97,20.37-8.31,30.34
	c13.16,14.12,27.53,27.08,42.95,38.74c1.81-2.47,3.56-4.99,5.22-7.55c5.37-8.26,10.3-17.14,13.08-26.64
	c2.29-7.82,1.46-14.3-1.88-21.71c-8.97-19.89-25.05-36.81-39.92-52.42c-6.96-7.3-14.11-14.42-21.3-21.49
	c-7.79-7.66-15.4-15.53-24.11-22.18c-9.38-7.16-19.82-12.94-31.15-16.34c-6.15-1.85-12.42-2.98-18.76-3.6
	c2.8,9.6,6.01,19.02,9.64,28.23c4.87,3.09,9.82,6.08,14.85,9.02c15.03,8.78,30.48,17.47,43.72,28.89
	C348.13,532.5,353.16,537.59,356.42,543.65z"/>
<g>
	<path class="st0" d="M427.42,853.18H324.29V570.84c0-49.38-38.64-91.18-88-92.64c-51.29-1.52-93.5,39.76-93.5,90.71v284.28h0
		c-56.95,0-103.13-46.17-103.13-103.13V571.85c0-106.39,84.49-195.17,190.87-196.8C338.81,373.4,427.42,461,427.42,568.91V853.18z"
		/>
</g>
<path class="st0" d="M810.39,497.86c-26.84,0-47.35-7.52-62.42-20.27v189.96c0,50.04-40.71,90.75-90.75,90.75
	c-45.8,0-90.75-52.85-90.75-106.71V486.4c0-56.95-46.17-103.13-103.13-103.13h0v90.7V651.6c0,111.78,90.6,209.83,193.88,209.83
	c106.9,0,193.88-86.97,193.88-193.88V497.86H810.39z"/>
<path class="st0" d="M1145.29,427.76c-48.03-47.83-111.8-74.17-179.66-73.74l-114.54,0.62V226.21
	c0-104.63-85.12-189.75-189.75-189.75v103.13c47.77,0,86.62,38.86,86.62,86.63l0,179.46c0,7.78,1.46,15.55,4.78,22.58
	c8.85,18.71,27.25,29.79,46.78,29.79c0.09,0,0.18,0,0.28,0l166.32-0.89c43.46-0.32,84.1,18.02,113.18,50.89
	c20.43,23.09,33.23,52.2,36.48,82.86c9.46,89.34-60.68,165.56-148.14,166.07l-89.72,0.45c-31.02,81.69-89.04,101.87-93.04,103.17
	l183.31-0.49c138.72-0.8,251.57-114.31,251.57-253.03C1219.77,539.27,1193.32,475.6,1145.29,427.76z"/>
<g>
	<path class="st2" d="M47.97,973.12H73.4c15.09,0,20.37,6.54,20.37,17.31v10.45c0,10.87-5.28,17.41-20.37,17.41H57.05v25.11h-9.08
		V973.12z M73.09,981.25H57.05v28.91h16.04c8.65,0,11.6-2.43,11.6-9.29v-10.34C84.69,983.57,81.74,981.25,73.09,981.25z"/>
	<path class="st2" d="M257.34,973.12v50.54c0,11.5-6.65,20.79-24.9,20.79s-24.9-9.29-24.9-20.79v-50.54h9.07v50.02
		c0,8.65,4.75,13.19,15.83,13.19s15.83-4.54,15.83-13.19v-50.02H257.34z"/>
	<path class="st2" d="M376.07,1043.4v-70.28h27.12c11.08,0,16.57,4.96,16.57,14.25v8.13c0,5.38-1.79,9.39-8.02,11.71
		c6.12,1.05,10.34,5.17,10.34,12.66v8.44c0,9.81-6.86,15.09-17.41,15.09H376.07z M410.68,987.58c0-4.54-2.53-6.65-8.02-6.65h-17.51
		v22.79h16.04c6.86,0,9.49-3.16,9.49-8.23V987.58z M413,1020.19c0-5.59-3.17-8.65-10.13-8.65h-17.73v24.05h18.25
		c6.44,0,9.6-2.74,9.6-8.02V1020.19z"/>
	<path class="st2" d="M546.71,1035.27h30.49v8.13h-39.57v-70.28h9.07V1035.27z"/>
	<path class="st2" d="M701.32,1043.4h-9.07v-70.28h9.07V1043.4z"/>
	<path class="st2" d="M828.59,1023.25c0,9.81,3.8,12.98,15.3,12.98c4.22,0,11.08-0.53,16.46-1.48l0.95,7.81
		c-5.06,1.16-12.45,1.9-17.73,1.9c-17.2,0-24.05-7.39-24.05-20.68v-31.02c0-13.29,6.86-20.68,24.05-20.68
		c5.28,0,12.66,0.74,17.73,1.9l-0.95,7.81c-5.38-0.95-12.24-1.48-16.46-1.48c-11.5,0-15.3,3.16-15.3,12.98V1023.25z"/>
	<path class="st2" d="M986.46,1043.4h-9.07v-70.28h9.07V1043.4z"/>
	<path class="st2" d="M1130.83,973.12c17.2,0,22.58,8.97,22.58,20.16v29.97c0,11.18-5.38,20.15-22.58,20.15h-24.59v-70.28H1130.83z
		 M1115.32,1035.27h15.19c10.66,0,13.83-4.43,13.83-12.66v-28.7c0-8.23-3.17-12.66-13.83-12.66h-15.19V1035.27z"/>
	<path class="st2" d="M1322.9,1043.4h-9.18l-5.8-16.88h-29.86l-5.7,16.88h-9.18l23.74-70.28h12.24L1322.9,1043.4z M1293.03,979.67
		l-12.56,38.94h25.11L1293.03,979.67z"/>
	<path class="st2" d="M1460.72,973.12c17.2,0,22.58,8.97,22.58,20.16v29.97c0,11.18-5.38,20.15-22.58,20.15h-24.59v-70.28H1460.72z
		 M1445.21,1035.27h15.19c10.66,0,13.83-4.43,13.83-12.66v-28.7c0-8.23-3.17-12.66-13.83-12.66h-15.19V1035.27z"/>
</g>
<path class="st0" d="M1216.49,756.19c-26.13,42.28-90.67,97.35-155.96,103.13h192.81c147.09,0,221.71-51.56,234.24-103.13H1216.49z"
	/>
</svg>
